<svg xmlns="http://www.w3.org/2000/svg" viewBox="0 0 470 120" role="img" aria-label="Dropstone logo">
  <defs>
    <linearGradient id="ds-grad" x1="0" y1="0" x2="1" y2="1">
      <stop offset="0%" stop-color="#818cf8"/>
      <stop offset="100%" stop-color="#22d3ee"/>
    </linearGradient>
  </defs>

  <!-- icon: a drop settling, ripples become graph edges -->
  <g>
    <!-- connection edges -->
    <line x1="60" y1="66" x2="16" y2="90" stroke="url(#ds-grad)" stroke-width="1.6" opacity="0.55"/>
    <line x1="60" y1="66" x2="104" y2="90" stroke="url(#ds-grad)" stroke-width="1.6" opacity="0.55"/>
    <line x1="104" y1="90" x2="82" y2="106" stroke="url(#ds-grad)" stroke-width="1.6" opacity="0.55"/>

    <!-- ripples -->
    <ellipse cx="60" cy="92" rx="30" ry="9" fill="none" stroke="url(#ds-grad)" stroke-width="3"/>
    <ellipse cx="60" cy="92" rx="47" ry="15" fill="none" stroke="url(#ds-grad)" stroke-width="2" opacity="0.4"/>

    <!-- the drop -->
    <path d="M60 8 C60 8 40 33 40 47 C40 58.5 49 68 60 68 C71 68 80 58.5 80 47 C80 33 60 8 60 8 Z" fill="url(#ds-grad)"/>

    <!-- linked nodes on the ripples -->
    <circle cx="16" cy="90" r="5" fill="url(#ds-grad)"/>
    <circle cx="104" cy="90" r="5" fill="url(#ds-grad)"/>
    <circle cx="82" cy="106" r="4" fill="url(#ds-grad)" opacity="0.8"/>
  </g>

  <!-- wordmark -->
  <text x="138" y="72" font-family="'Segoe UI', -apple-system, 'Helvetica Neue', Arial, sans-serif"
        font-size="46" font-weight="700" letter-spacing="0.5" fill="#e2e8f0">Dropstone</text>
  <text x="141" y="100" font-family="'Segoe UI', -apple-system, 'Helvetica Neue', Arial, sans-serif"
        font-size="15" font-style="italic" fill="#94a3b8">drop anything — it settles where it belongs</text>
</svg>
